# xmcd
#
# Track frame offsets: 
#        150
#        13813
#        28478
#        42104
#        53474
#        67557
#        81997
#        93082
#        109136
#        124056
#        137931
#        153337
#
# Disc length: 2262 seconds
#
# Revision: 1
# Processed by: cddbd v1.5.1PL2 Copyright (c) Steve Scherf et al.
# Submitted via: ExactAudioCopy v0.95a3
#
DISCID=9408d40c
DTITLE=Oscar Peterson - Keyboard
DYEAR=2005
DGENRE=Jazz
TTITLE0=Jumpin' With Symphony Sid
TTITLE1=Robbins Nest
TTITLE2=TicoTico
TTITLE3=Get Happy
TTITLE4=Smoke Gets In Your Eyes
TTITLE5=Depp Purple
TTITLE6=Exactly Like You
TTITLE7=I'll Remember April
TTITLE8=Easy To Love
TTITLE9=Taking A Chance On Love
TTITLE10=Squatty Roo
TTITLE11=After All
EXTD=YEAR: 2005
EXTT0=
EXTT1=
EXTT2=
EXTT3=
EXTT4=
EXTT5=
EXTT6=
EXTT7=
EXTT8=
EXTT9=
EXTT10=
EXTT11=
PLAYORDER=
